<svg width="24" height="24" viewBox="0 0 24 24" fill="none" xmlns="http://www.w3.org/2000/svg">
<path d="M12 17.5C13.25 17.5 14.3127 17.0627 15.188 16.188C16.0633 15.3133 16.5007 14.2507 16.5 13C16.5 11.75 16.0627 10.6877 15.188 9.813C14.3133 8.93833 13.2507 8.50067 12 8.5C10.75 8.5 9.68767 8.93767 8.813 9.813C7.93833 10.6883 7.50067 11.7507 7.5 13C7.5 14.25 7.93767 15.3127 8.813 16.188C9.68833 17.0633 10.7507 17.5007 12 17.5ZM12 15.5C11.3 15.5 10.7083 15.2583 10.225 14.775C9.74167 14.2917 9.5 13.7 9.5 13C9.5 12.3 9.74167 11.7083 10.225 11.225C10.7083 10.7417 11.3 10.5 12 10.5C12.7 10.5 13.2917 10.7417 13.775 11.225C14.2583 11.7083 14.5 12.3 14.5 13C14.5 13.7 14.2583 14.2917 13.775 14.775C13.2917 15.2583 12.7 15.5 12 15.5ZM4 21C3.45 21 2.97933 20.8043 2.588 20.413C2.19667 20.0217 2.00067 19.5507 2 19V7C2 6.45 2.196 5.97933 2.588 5.588C2.98 5.19667 3.45067 5.00067 4 5H7.15L9 3H15L16.85 5H20C20.55 5 21.021 5.196 21.413 5.588C21.805 5.98 22.0007 6.45067 22 7V19C22 19.55 21.8043 20.021 21.413 20.413C21.0217 20.805 20.5507 21.0007 20 21H4Z" fill="black"/>
</svg>
