<svg width="24" height="24" viewBox="0 0 24 24" fill="none" xmlns="http://www.w3.org/2000/svg">
<g clip-path="url(#clip0_55_11)">
<path fill-rule="evenodd" clip-rule="evenodd" d="M14.31 3C14.6332 3 14.9516 3.07832 15.2379 3.22827C15.5242 3.37822 15.7699 3.59533 15.954 3.861L16.042 4L21.815 14C21.9754 14.2779 22.0667 14.5904 22.0809 14.911C22.0952 15.2316 22.0321 15.5509 21.897 15.842L21.815 16L19.505 20C19.3434 20.2798 19.1165 20.5162 18.8436 20.6892C18.5707 20.8621 18.26 20.9664 17.938 20.993L17.774 21H6.22699C5.90362 21.0002 5.58503 20.9219 5.29853 20.772C5.01202 20.622 4.76616 20.4048 4.58199 20.139L4.49499 20L2.18499 16C2.02455 15.7221 1.93333 15.4096 1.91906 15.089C1.90479 14.7684 1.96788 14.4491 2.10299 14.158L2.18499 14L7.95999 4C8.12166 3.72009 8.34875 3.48354 8.62183 3.3106C8.89492 3.13766 9.20584 3.03349 9.52799 3.007L9.69099 3H14.31ZM19.506 16H9.11299L7.38099 19H17.774L19.506 16ZM9.11399 6L3.91699 15L5.64899 18L10.845 9L9.11399 6ZM14.31 5H10.846L16.042 14H19.506L14.31 5ZM12 11L10.268 14H13.732L12 11Z" fill="black"/>
</g>
<defs>
<clipPath id="clip0_55_11">
<rect width="24" height="24" fill="white"/>
</clipPath>
</defs>
</svg>
