<svg width="24" height="24" viewBox="0 0 24 24" fill="none" xmlns="http://www.w3.org/2000/svg">
<path d="M7.80001 14.4C7.64088 14.4 7.48827 14.3368 7.37575 14.2243C7.26323 14.1118 7.20001 13.9591 7.20001 13.8C7.20001 13.6409 7.26323 13.4883 7.37575 13.3757C7.48827 13.2632 7.64088 13.2 7.80001 13.2H16.2C16.3591 13.2 16.5118 13.2632 16.6243 13.3757C16.7368 13.4883 16.8 13.6409 16.8 13.8C16.8 13.9591 16.7368 14.1118 16.6243 14.2243C16.5118 14.3368 16.3591 14.4 16.2 14.4H7.80001ZM7.80001 18C7.64088 18 7.48827 17.9368 7.37575 17.8243C7.26323 17.7118 7.20001 17.5591 7.20001 17.4C7.20001 17.2409 7.26323 17.0883 7.37575 16.9757C7.48827 16.8632 7.64088 16.8 7.80001 16.8H16.2C16.3591 16.8 16.5118 16.8632 16.6243 16.9757C16.7368 17.0883 16.8 17.2409 16.8 17.4C16.8 17.5591 16.7368 17.7118 16.6243 17.8243C16.5118 17.9368 16.3591 18 16.2 18H7.80001Z" fill="black"/>
<path fill-rule="evenodd" clip-rule="evenodd" d="M13.422 1.20001H5.40001C4.92262 1.20001 4.46478 1.38965 4.12721 1.72722C3.78965 2.06479 3.60001 2.52262 3.60001 3.00001V21C3.60001 21.4774 3.78965 21.9352 4.12721 22.2728C4.46478 22.6104 4.92262 22.8 5.40001 22.8H18.6C19.0774 22.8 19.5352 22.6104 19.8728 22.2728C20.2104 21.9352 20.4 21.4774 20.4 21V8.64241C20.3999 8.19178 20.2307 7.75758 19.926 7.42561L14.7492 1.78321C14.5805 1.59931 14.3754 1.45249 14.1469 1.35209C13.9184 1.25169 13.6716 1.1999 13.422 1.20001ZM4.80001 3.00001C4.80001 2.84088 4.86322 2.68827 4.97574 2.57575C5.08826 2.46323 5.24088 2.40001 5.40001 2.40001H13.422C13.5053 2.39992 13.5876 2.41716 13.6639 2.45063C13.7401 2.48409 13.8085 2.53306 13.8648 2.59441L19.0416 8.23681C19.1433 8.34741 19.1999 8.49215 19.2 8.64241V21C19.2 21.1591 19.1368 21.3118 19.0243 21.4243C18.9117 21.5368 18.7591 21.6 18.6 21.6H5.40001C5.24088 21.6 5.08826 21.5368 4.97574 21.4243C4.86322 21.3118 4.80001 21.1591 4.80001 21V3.00001Z" fill="black"/>
<path d="M13.2 8.40001H19.8C19.9591 8.40001 20.1117 8.46322 20.2243 8.57575C20.3368 8.68827 20.4 8.84088 20.4 9.00001C20.4 9.15914 20.3368 9.31175 20.2243 9.42427C20.1117 9.5368 19.9591 9.60001 19.8 9.60001H12.6C12.4409 9.60001 12.2883 9.5368 12.1757 9.42427C12.0632 9.31175 12 9.15914 12 9.00001V1.80001C12 1.64088 12.0632 1.48827 12.1757 1.37575C12.2883 1.26323 12.4409 1.20001 12.6 1.20001C12.7591 1.20001 12.9117 1.26323 13.0243 1.37575C13.1368 1.48827 13.2 1.64088 13.2 1.80001V8.40001Z" fill="black"/>
</svg>
