<svg width="24" height="24" viewBox="0 0 24 24" fill="none" xmlns="http://www.w3.org/2000/svg">
<g clip-path="url(#clip0_55_15)">
<path d="M12.678 16.672C12.678 18.847 12.68 21.237 12.677 23.166C12.676 23.742 12.433 23.98 11.86 23.999C4.815 24.077 2.933 16.128 7.392 12.665C5.442 12.681 3.373 12.672 1.406 12.672C0.0550026 12.672 -0.0079975 12.662 0.0010025 11.321C0.259002 4.73801 7.947 3.04601 11.324 7.38501L11.308 0.928007C11.307 0.233007 11.52 0.0220072 12.214 0.0030072C18.623 -0.183993 21.374 7.31101 16.64 11.329L22.771 11.331C23.868 11.331 24.012 11.436 23.999 12.548C23.776 19.271 16.197 20.924 12.678 16.672ZM12.68 1.38801L12.677 11.36C19.237 10.895 19.275 1.82801 12.68 1.38801ZM11.32 22.612L11.319 12.642C4.392 13.24 5.029 22.368 11.321 22.612H11.32ZM1.4 11.315L11.35 11.323C10.823 4.49401 1.588 4.95601 1.4 11.315ZM12.638 12.68C13.32 19.555 22.308 18.964 22.615 12.69L12.638 12.68Z" fill="black"/>
</g>
<defs>
<clipPath id="clip0_55_15">
<rect width="24" height="24" fill="white"/>
</clipPath>
</defs>
</svg>
